<svg width="66" height="59" viewBox="0 0 66 59" fill="none" xmlns="http://www.w3.org/2000/svg">
<g clip-path="url(#clip0_387_467)">
<path d="M32.5111 0C32.8752 0.69359 33.2305 1.33555 33.5566 1.99314C35.8119 6.54461 38.4545 10.8638 41.1976 15.1292C42.5318 17.2025 43.8565 19.286 44.9027 21.5271C47.3849 26.8421 47.2803 32.1375 44.5297 37.2915C42.4136 41.2574 38.9545 43.4387 34.528 44.0684C30.7354 44.6078 27.2531 43.7906 24.1799 41.4693C21.4945 39.4409 19.82 36.7256 19.0034 33.4798C18.1515 30.0907 18.2562 26.7328 19.4239 23.4217C20.0503 21.6487 20.9809 20.0299 21.9761 18.4504C25.3456 13.1055 28.3448 7.55001 31.3997 2.02575C31.7605 1.37292 32.1171 0.718046 32.5111 0ZM32.5546 17.5021C32.4785 17.6101 32.4187 17.6774 32.3786 17.7521C31.0275 20.0944 29.6722 22.4354 28.3373 24.7872C28.2337 24.9937 28.2096 25.2311 28.2694 25.4543C29.09 28.1132 29.9338 30.7652 30.7673 33.4207C30.8352 33.6333 30.9466 33.7346 31.1817 33.7318C32.0417 33.723 32.9031 33.7094 33.7631 33.7393C34.113 33.7509 34.2481 33.6286 34.3473 33.3059C35.1566 30.6905 35.977 28.0787 36.8085 25.4706C36.8523 25.3492 36.8678 25.2193 36.8538 25.091C36.8398 24.9627 36.7966 24.8392 36.7277 24.7301C35.7671 23.0776 34.8113 21.4214 33.8602 19.7615C33.435 19.0197 33.0043 18.2793 32.5546 17.5021ZM32.9527 10.9962L32.8671 11.0268V11.3563C32.8671 12.9968 32.8548 14.6374 32.8779 16.278C32.8846 16.5912 32.9669 16.8981 33.1177 17.1726C34.2923 19.2493 35.4899 21.3165 36.6822 23.3796C36.8357 23.6459 36.9987 23.9061 37.1869 24.2179C37.2467 24.0637 37.2834 23.9815 37.3099 23.8973C37.7494 22.5067 38.1794 21.112 38.6325 19.7269C38.7391 19.3995 38.6801 19.1502 38.4878 18.8777C37.015 16.789 35.5477 14.696 34.0858 12.5987C33.7101 12.0628 33.3304 11.5322 32.9506 10.9962H32.9527ZM32.1789 10.9568C32.092 11.0567 32.0431 11.1022 32.0077 11.1538C30.1844 13.7597 28.3602 16.3638 26.5351 18.9661C26.3625 19.2106 26.3632 19.4355 26.4475 19.699C26.779 20.733 27.1016 21.7703 27.4291 22.8056C27.5711 23.2546 27.7158 23.7023 27.8754 24.2009C27.9569 24.0875 28.0113 24.0209 28.0554 23.9469C29.3923 21.6372 30.727 19.3241 32.0594 17.0076C32.143 16.8626 32.1897 16.6993 32.1952 16.532C32.2068 14.7549 32.2061 12.9771 32.2068 11.1993C32.2034 11.1436 32.1939 11.0886 32.1789 10.9568ZM30.1973 33.704L27.7083 25.8361L23.1684 33.704H30.1973ZM41.9082 33.6795C40.3913 31.0553 38.8995 28.4752 37.3669 25.8232L34.8867 33.6782L41.9082 33.6795ZM33.1048 39.3465L41.1745 34.4655L41.1542 34.3779C41.0495 34.3711 40.9449 34.3595 40.8403 34.3595C38.9622 34.3595 37.0841 34.3595 35.206 34.3595C34.7169 34.3595 34.6625 34.3996 34.509 34.8751C34.1358 36.0499 33.7654 37.2252 33.3976 38.4008C33.3073 38.6868 33.2224 38.9769 33.1048 39.3465ZM23.9251 34.3874L23.9041 34.4553L31.9527 39.3295C31.9092 39.1542 31.8902 39.0578 31.861 38.964C31.4201 37.5605 30.9704 36.1604 30.5418 34.7522C30.4494 34.4479 30.2938 34.3446 29.9827 34.3446C28.0581 34.3582 26.1336 34.3548 24.2084 34.3582C24.1147 34.3663 24.0196 34.3806 23.9251 34.3874ZM39.1067 20.5971L39.0387 20.6019C39.0034 20.6936 38.9633 20.7839 38.9334 20.8777C38.5428 22.1181 38.1597 23.3613 37.7589 24.5983C37.6624 24.8945 37.7039 25.1364 37.8574 25.4006C38.8927 27.1804 39.9157 28.9671 40.9436 30.7503C41.1474 31.1097 41.3607 31.467 41.5699 31.825L41.6467 31.7924C40.7989 28.0602 39.9522 24.3284 39.1067 20.5971ZM23.4435 31.7713L23.5039 31.7958C23.5399 31.7448 23.5807 31.6959 23.612 31.6422C24.8347 29.5275 26.0575 27.4155 27.2633 25.2912C27.3598 25.1207 27.3713 24.847 27.3143 24.6527C26.9502 23.417 26.5561 22.1901 26.1703 20.9606C26.1363 20.8519 26.0867 20.7479 26.0446 20.6419L25.9658 20.6555C25.1248 24.3606 24.284 28.0658 23.4435 31.7713ZM33.9893 34.4037H31.0879C31.5635 36.0626 32.0308 37.6869 32.4969 39.3111L32.5872 39.2989L33.9893 34.4037Z" fill="white"/>
<path d="M28.7273 46.4882V48.6913C28.7273 50.1518 28.7232 51.6124 28.7273 53.0722C28.7273 53.7862 29.1308 54.3249 29.7849 54.5273C30.4602 54.7359 31.2326 54.5042 31.5729 53.9092C31.7375 53.6029 31.8243 53.2609 31.8256 52.9133C31.8487 50.9093 31.8372 48.9052 31.8372 46.9012V46.4828H34.6333V53.0906C34.6333 55.3099 33.0437 57.0558 30.8291 57.2433C29.1403 57.3859 27.6933 56.9036 26.6506 55.4954C26.1896 54.8837 25.9391 54.1391 25.9366 53.3732C25.9244 51.1429 25.9318 48.912 25.9325 46.6818C25.9325 46.6261 25.9434 46.5704 25.9515 46.4889L28.7273 46.4882Z" fill="white"/>
<path d="M36.6822 46.48H43.4428V49.0615H39.4348V50.5159H42.7214V52.8351C42.6039 52.8412 42.485 52.8521 42.3654 52.8521C41.4823 52.8521 40.5992 52.8603 39.716 52.848C39.4776 52.848 39.3974 52.916 39.4076 53.1571C39.4239 53.5389 39.4117 53.9214 39.4117 54.3378H43.4374V56.9478H36.6788L36.6822 46.48Z" fill="white"/>
<path d="M59.2106 53.5145C59.9347 54.3589 60.773 54.6829 61.7818 54.5375C61.8936 54.5216 62.0029 54.4917 62.1072 54.4485C62.6181 54.2386 62.7186 53.8263 62.2832 53.4907C61.8851 53.1823 61.4245 52.9506 60.9782 52.7108C60.5108 52.4595 60.0074 52.2699 59.5516 51.9975C58.515 51.3759 57.9036 50.486 57.9993 49.2279C58.0904 48.0371 58.7731 47.2416 59.8084 46.7477C61.078 46.1424 62.3701 46.1553 63.6445 46.7552C64.169 47.0018 64.5956 47.3734 64.8598 47.8971C64.9033 47.982 64.902 48.158 64.8442 48.2164C64.3687 48.6987 63.8762 49.1634 63.3687 49.6518C63.1908 49.4198 62.9631 49.2307 62.7025 49.0982C62.4419 48.9657 62.1549 48.8933 61.8627 48.8862C61.6157 48.8697 61.3685 48.9165 61.1446 49.0221C60.9809 49.1063 60.8084 49.3271 60.7941 49.4976C60.7812 49.6471 60.9496 49.8821 61.1004 49.9623C61.5176 50.1851 61.9836 50.3175 62.4 50.5397C63.0555 50.8875 63.7641 51.1918 64.3164 51.6694C65.8965 53.0369 65.675 55.3887 63.8714 56.4423C62.1052 57.4749 60.3056 57.352 58.5564 56.3248C58.4413 56.2522 58.3333 56.1689 58.2337 56.0762C57.4729 55.405 57.4742 55.299 58.1773 54.6014C58.5238 54.2556 58.8492 53.8942 59.2106 53.5145Z" fill="white"/>
<path d="M2.74579 54.3487H6.7538V56.943H0.00335693V46.4814H2.74919L2.74579 54.3487Z" fill="white"/>
<path d="M8.28571 56.9451V46.4835H11.0288V56.9451H8.28571Z" fill="white"/>
<path d="M32.5546 17.5021C33.0043 18.2793 33.4377 19.0197 33.8629 19.7615C34.8181 21.4182 35.7739 23.0744 36.7304 24.7301C36.7993 24.8392 36.8424 24.9627 36.8565 25.091C36.8705 25.2193 36.855 25.3492 36.8112 25.4706C35.9833 28.0796 35.1629 30.6914 34.35 33.3059C34.2508 33.6286 34.1156 33.7509 33.7658 33.7393C32.9064 33.7094 32.0451 33.723 31.1844 33.7318C30.9493 33.7318 30.8365 33.6333 30.77 33.4207C29.9364 30.7652 29.0927 28.1131 28.2721 25.4543C28.2122 25.2311 28.2364 24.9937 28.34 24.7872C29.6749 22.4354 31.0302 20.0944 32.3813 17.7521C32.4221 17.6774 32.4785 17.6101 32.5546 17.5021Z" fill="#052C39"/>
<path d="M32.9506 10.9962C33.3283 11.5302 33.7081 12.0628 34.0837 12.5987C35.5506 14.6915 37.018 16.7845 38.4858 18.8777C38.678 19.1495 38.7371 19.3995 38.6305 19.7269C38.1773 21.1127 37.7473 22.5067 37.3078 23.8973C37.2813 23.9815 37.2446 24.0637 37.1849 24.2179C36.9967 23.9061 36.8336 23.6459 36.6801 23.3796C35.4879 21.3131 34.2902 19.2493 33.1157 17.1726C32.9648 16.8981 32.8826 16.5912 32.8759 16.278C32.8528 14.6374 32.865 12.9968 32.865 11.3563V11.0268L32.9506 10.9962Z" fill="#052C39"/>
<path d="M32.1789 10.9568C32.1938 11.0886 32.2061 11.1436 32.2054 11.1987C32.2054 12.9764 32.2054 14.7542 32.1938 16.5313C32.1883 16.6986 32.1416 16.8619 32.058 17.0069C30.7283 19.3225 29.3937 21.6356 28.054 23.9462C28.0112 24.0202 27.9555 24.0868 27.874 24.2002C27.7144 23.7016 27.5697 23.2539 27.4277 22.8049C27.1003 21.7696 26.7776 20.7323 26.4461 19.6984C26.3618 19.4348 26.3612 19.2099 26.5337 18.9654C28.3629 16.3645 30.1871 13.7604 32.0063 11.1531C32.0444 11.1022 32.0919 11.0567 32.1789 10.9568Z" fill="#052C39"/>
<path d="M30.1974 33.704H23.1684L27.7104 25.8361L30.1974 33.704Z" fill="#052C39"/>
<path d="M41.9082 33.6782H34.8867L37.3662 25.8232C38.8995 28.4752 40.3913 31.0553 41.9082 33.6782Z" fill="#052C39"/>
<path d="M33.1049 39.3465C33.2197 38.9749 33.3087 38.6868 33.3977 38.4002C33.7672 37.2227 34.1377 36.0474 34.509 34.8745C34.6605 34.3989 34.7169 34.3589 35.206 34.3589C37.0837 34.3589 38.9618 34.3589 40.8403 34.3589C40.9449 34.3589 41.0496 34.3704 41.1542 34.3772L41.1746 34.4648L33.1049 39.3465Z" fill="#052C39"/>
<path d="M23.9251 34.3874C24.0195 34.3806 24.1146 34.3663 24.2097 34.3663C26.1336 34.3629 28.0581 34.3663 29.984 34.3528C30.2951 34.3528 30.4507 34.4526 30.5431 34.7603C30.9717 36.1665 31.4214 37.5666 31.8623 38.9722C31.8915 39.0652 31.9106 39.1624 31.954 39.3376L23.9054 34.4635L23.9251 34.3874Z" fill="#052C39"/>
<path d="M39.1067 20.5971C39.9527 24.3284 40.7982 28.0602 41.6433 31.7924L41.5665 31.825C41.3573 31.467 41.1467 31.1097 40.9402 30.7503C39.9124 28.9671 38.8893 27.1804 37.854 25.4006C37.7005 25.1364 37.659 24.8945 37.7555 24.5983C38.1563 23.3613 38.5394 22.1181 38.9301 20.8777C38.96 20.7839 38.998 20.6936 39.0354 20.6019L39.1067 20.5971Z" fill="#052C39"/>
<path d="M23.4435 31.7713C24.2845 28.0663 25.1253 24.361 25.9658 20.6555L26.0446 20.6419C26.0867 20.7479 26.1363 20.8519 26.1703 20.9605C26.5561 22.1901 26.9502 23.417 27.3143 24.6527C27.3713 24.847 27.3598 25.1207 27.2633 25.2912C26.0589 27.4155 24.8327 29.5275 23.612 31.6422C23.5807 31.6959 23.5399 31.7448 23.5039 31.7958L23.4435 31.7713Z" fill="#052C39"/>
<path d="M33.9893 34.4037L32.5871 39.2989L32.4968 39.3111C32.0308 37.6869 31.5641 36.0626 31.0879 34.4037H33.9893Z" fill="#052C39"/>
<path fill-rule="evenodd" clip-rule="evenodd" d="M22.3606 56.3174C22.2252 56.295 22.0829 56.2714 21.93 56.2474C21.9664 56.2168 21.9984 56.1899 22.0272 56.1656C22.1183 56.0889 22.1768 56.0396 22.2377 55.9926C24.652 54.0661 24.9801 50.4263 22.9231 48.1254C21.5495 46.5887 19.7846 46.0677 17.7738 46.245C14.1028 46.5684 11.7571 50.3359 13.1021 53.7522C14.0016 56.0348 16.3486 57.4328 18.9566 57.229C19.0603 57.2153 19.1659 57.2254 19.2652 57.2584C19.3645 57.2915 19.455 57.3467 19.5299 57.4199C20.5367 58.3281 21.7262 58.8288 23.0678 58.9939C23.2927 59.019 23.3871 58.9558 23.4618 58.7473C23.6206 58.3029 23.7915 57.8625 23.9623 57.4221C24.045 57.2089 24.1277 56.9957 24.2091 56.782C24.2349 56.7 24.2555 56.6166 24.2709 56.532C24.1927 56.5261 24.1155 56.5204 24.0393 56.5148C23.7238 56.4916 23.424 56.4696 23.1269 56.4335C22.88 56.4035 22.6346 56.3628 22.3606 56.3174ZM18.5062 54.5783C18.5932 54.5779 18.6792 54.574 18.764 54.5667C20.2845 54.4372 21.4376 53.2379 21.4408 51.7272C21.4409 51.7198 21.4409 51.7125 21.4408 51.7051C21.4342 50.102 20.1433 48.857 18.4905 48.859C16.8351 48.8611 15.548 50.1238 15.5558 51.7287C15.5558 51.7334 15.5558 51.7381 15.5559 51.7428C15.568 53.0982 16.5046 54.2014 17.7904 54.499C18.019 54.552 18.2587 54.5794 18.5062 54.5783Z" fill="white"/>
<path fill-rule="evenodd" clip-rule="evenodd" d="M56.1176 49.9494C55.3541 47.677 53.2027 46.2056 50.6369 46.1628C50.475 46.1864 50.3119 46.2054 50.1488 46.2244C49.7944 46.2658 49.4397 46.3072 49.0955 46.3951C44.6377 47.5432 43.7288 52.6218 46.2423 55.369C47.66 56.9145 49.4657 57.4213 51.5118 57.1862C55.0348 56.7813 57.246 53.3073 56.1176 49.9494ZM50.6097 48.8612C50.6226 48.8611 50.6355 48.861 50.6484 48.8611C50.8341 48.8617 51.0153 48.8782 51.1905 48.9093C52.5706 49.1541 53.5864 50.3032 53.5845 51.7162C53.5845 51.723 53.5845 51.7298 53.5844 51.7367C53.5722 53.329 52.2896 54.5688 50.645 54.5783C49.9541 54.5823 49.3222 54.3604 48.8219 53.9831C48.2026 53.5171 47.7849 52.8125 47.7067 52.0003C47.698 51.9105 47.6935 51.8195 47.6933 51.7273C47.6933 51.7229 47.6933 51.7186 47.6933 51.7142C47.6974 50.1202 48.9734 48.8752 50.6097 48.8612Z" fill="white"/>
</g>
<defs>
<clipPath id="clip0_387_467">
<rect width="65.3775" height="59" fill="white"/>
</clipPath>
</defs>
</svg>
