<svg width="19" height="18" viewBox="0 0 19 18" fill="none" xmlns="http://www.w3.org/2000/svg">
<g clip-path="url(#clip0_121_53)">
<path d="M0.791667 3.56215H2.95767C3.12759 4.15445 3.49851 4.67732 4.01322 5.0501C4.52792 5.42288 5.1578 5.62485 5.80569 5.62485C6.45357 5.62485 7.08345 5.42288 7.59816 5.0501C8.11286 4.67732 8.48379 4.15445 8.65371 3.56215H18.2083C18.4183 3.56215 18.6197 3.48313 18.7681 3.34248C18.9166 3.20183 19 3.01106 19 2.81215C19 2.61324 18.9166 2.42247 18.7681 2.28182C18.6197 2.14117 18.4183 2.06215 18.2083 2.06215H8.65371C8.48379 1.46985 8.11286 0.946982 7.59816 0.574204C7.08345 0.201427 6.45357 -0.000541687 5.80569 -0.000541687C5.1578 -0.000541687 4.52792 0.201427 4.01322 0.574204C3.49851 0.946982 3.12759 1.46985 2.95767 2.06215H0.791667C0.581704 2.06215 0.38034 2.14117 0.231874 2.28182C0.0834075 2.42247 0 2.61324 0 2.81215C0 3.01106 0.0834075 3.20183 0.231874 3.34248C0.38034 3.48313 0.581704 3.56215 0.791667 3.56215ZM5.80529 1.49965C6.0793 1.49965 6.34716 1.57663 6.57499 1.72085C6.80282 1.86507 6.98039 2.07005 7.08525 2.30988C7.19011 2.54971 7.21755 2.81361 7.16409 3.06821C7.11063 3.32281 6.97868 3.55667 6.78493 3.74023C6.59118 3.92379 6.34432 4.04879 6.07557 4.09943C5.80683 4.15008 5.52827 4.12408 5.27512 4.02474C5.02196 3.9254 4.80559 3.75718 4.65336 3.54134C4.50113 3.3255 4.41988 3.07174 4.41988 2.81215C4.42029 2.46418 4.56639 2.13057 4.82612 1.88451C5.08584 1.63846 5.43799 1.50005 5.80529 1.49965Z" fill="white"/>
<path d="M18.2083 8.25H16.0423C15.8727 7.65756 15.5019 7.1345 14.9873 6.76157C14.4726 6.38864 13.8427 6.18657 13.1947 6.18657C12.5468 6.18657 11.9168 6.38864 11.4022 6.76157C10.8875 7.1345 10.5167 7.65756 10.3471 8.25H0.791667C0.581704 8.25 0.38034 8.32902 0.231874 8.46967C0.0834075 8.61032 0 8.80109 0 9C0 9.19891 0.0834075 9.38968 0.231874 9.53033C0.38034 9.67098 0.581704 9.75 0.791667 9.75H10.3471C10.5167 10.3424 10.8875 10.8655 11.4022 11.2384C11.9168 11.6114 12.5468 11.8134 13.1947 11.8134C13.8427 11.8134 14.4726 11.6114 14.9873 11.2384C15.5019 10.8655 15.8727 10.3424 16.0423 9.75H18.2083C18.4183 9.75 18.6197 9.67098 18.7681 9.53033C18.9166 9.38968 19 9.19891 19 9C19 8.80109 18.9166 8.61032 18.7681 8.46967C18.6197 8.32902 18.4183 8.25 18.2083 8.25ZM13.1947 10.3125C12.9207 10.3125 12.6528 10.2355 12.425 10.0913C12.1972 9.94708 12.0196 9.7421 11.9148 9.50227C11.8099 9.26244 11.7825 8.99854 11.8359 8.74394C11.8894 8.48934 12.0213 8.25548 12.2151 8.07192C12.4088 7.88836 12.6557 7.76336 12.9244 7.71272C13.1932 7.66207 13.4717 7.68807 13.7249 7.78741C13.978 7.88675 14.1944 8.05497 14.3466 8.27081C14.4989 8.48665 14.5801 8.74041 14.5801 9C14.5797 9.34797 14.4336 9.68158 14.1739 9.92764C13.9142 10.1737 13.562 10.3121 13.1947 10.3125Z" fill="white"/>
<path d="M18.2083 14.4375H8.65371C8.48379 13.8452 8.11286 13.3223 7.59816 12.9496C7.08345 12.5768 6.45357 12.3748 5.80569 12.3748C5.1578 12.3748 4.52792 12.5768 4.01322 12.9496C3.49851 13.3223 3.12759 13.8452 2.95767 14.4375H0.791667C0.581704 14.4375 0.38034 14.5165 0.231874 14.6572C0.0834075 14.7978 0 14.9886 0 15.1875C0 15.3864 0.0834075 15.5772 0.231874 15.7178C0.38034 15.8585 0.581704 15.9375 0.791667 15.9375H2.95767C3.12759 16.5298 3.49851 17.0527 4.01322 17.4254C4.52792 17.7982 5.1578 18.0002 5.80569 18.0002C6.45357 18.0002 7.08345 17.7982 7.59816 17.4254C8.11286 17.0527 8.48379 16.5298 8.65371 15.9375H18.2083C18.4183 15.9375 18.6197 15.8585 18.7681 15.7178C18.9166 15.5772 19 15.3864 19 15.1875C19 14.9886 18.9166 14.7978 18.7681 14.6572C18.6197 14.5165 18.4183 14.4375 18.2083 14.4375ZM5.80529 16.5C5.53128 16.5 5.26343 16.423 5.0356 16.2788C4.80777 16.1346 4.63019 15.9296 4.52533 15.6898C4.42048 15.4499 4.39304 15.186 4.4465 14.9314C4.49995 14.6768 4.6319 14.443 4.82565 14.2594C5.01941 14.0759 5.26627 13.9509 5.53501 13.9002C5.80375 13.8496 6.08232 13.8756 6.33547 13.9749C6.58862 14.0742 6.80499 14.2425 6.95722 14.4583C7.10946 14.6742 7.19071 14.9279 7.19071 15.1875C7.19008 15.5354 7.04392 15.8689 6.78424 16.1149C6.52456 16.3609 6.17253 16.4994 5.80529 16.5Z" fill="white"/>
</g>
<defs>
<clipPath id="clip0_121_53">
<rect width="19" height="18" fill="white"/>
</clipPath>
</defs>
</svg>
